<svg version="1.1" xmlns="http://www.w3.org/2000/svg" xmlns:xlink="http://www.w3.org/1999/xlink" width="884" height="828"><defs></defs><g><g transform="translate(-50,-98) scale(1,1)"><rect fill="#C0C0C0" stroke="none" x="239" y="479" width="127" height="192" opacity="0.2"></rect></g><g transform="translate(-50,-98) scale(1,1)"><rect fill="#ffffff" stroke="none" x="232" y="472" width="127" height="192"></rect></g><g transform="translate(-50,-98) scale(1,1)"><path fill="none" stroke="#000000" d="M 232 472 L 359 472 L 359 664 L 232 664 L 232 472 Z Z" stroke-miterlimit="10"></path></g><g transform="translate(-50,-98) scale(1,1)"><path fill="none" stroke="#000000" d="M 232 497 L 359 497" stroke-miterlimit="10"></path></g><g transform="translate(-50,-98) scale(1,1)"><path fill="none" stroke="#000000" d="M 232 595 L 359 595" stroke-miterlimit="10"></path></g><g transform="translate(-50,-98) scale(1,1)"><g><path fill="none" stroke="none"></path><text fill="#000000" stroke="none" font-family="Arial" font-size="13px" font-style="normal" font-weight="bold" text-decoration="none" x="276.5" y="491.5">Utente</text></g></g><g transform="translate(-50,-98) scale(1,1)"><g><path fill="none" stroke="none"></path><text fill="#000000" stroke="none" font-family="Arial" font-size="13px" font-style="normal" font-weight="normal" text-decoration="none" x="237" y="514.5">-id: Long</text></g></g><g transform="translate(-50,-98) scale(1,1)"><g><path fill="none" stroke="none"></path><text fill="#000000" stroke="none" font-family="Arial" font-size="13px" font-style="normal" font-weight="normal" text-decoration="none" x="237" y="529.5">-username: String</text></g></g><g transform="translate(-50,-98) scale(1,1)"><g><path fill="none" stroke="none"></path><text fill="#000000" stroke="none" font-family="Arial" font-size="13px" font-style="normal" font-weight="normal" text-decoration="none" x="237" y="544.5">-password: String</text></g></g><g transform="translate(-50,-98) scale(1,1)"><g><path fill="none" stroke="none"></path><text fill="#000000" stroke="none" font-family="Arial" font-size="13px" font-style="normal" font-weight="normal" text-decoration="none" x="237" y="559.5">-email: String</text></g></g><g transform="translate(-50,-98) scale(1,1)"><g><path fill="none" stroke="none"></path><text fill="#000000" stroke="none" font-family="Arial" font-size="13px" font-style="normal" font-weight="normal" text-decoration="none" x="237" y="574.5">-nome: String</text></g></g><g transform="translate(-50,-98) scale(1,1)"><g><path fill="none" stroke="none"></path><text fill="#000000" stroke="none" font-family="Arial" font-size="13px" font-style="normal" font-weight="normal" text-decoration="none" x="237" y="589.5">-cognome: String</text></g></g><g transform="translate(-50,-98) scale(1,1)"><rect fill="#C0C0C0" stroke="none" x="231" y="767" width="172" height="156" opacity="0.2"></rect></g><g transform="translate(-50,-98) scale(1,1)"><rect fill="#ffffff" stroke="none" x="224" y="760" width="172" height="156"></rect></g><g transform="translate(-50,-98) scale(1,1)"><path fill="none" stroke="#000000" d="M 224 760 L 396 760 L 396 916 L 224 916 L 224 760 Z Z" stroke-miterlimit="10"></path></g><g transform="translate(-50,-98) scale(1,1)"><path fill="none" stroke="#000000" d="M 224 785 L 396 785" stroke-miterlimit="10"></path></g><g transform="translate(-50,-98) scale(1,1)"><path fill="none" stroke="#000000" d="M 224 838 L 396 838" stroke-miterlimit="10"></path></g><g transform="translate(-50,-98) scale(1,1)"><g><path fill="none" stroke="none"></path><text fill="#000000" stroke="none" font-family="Arial" font-size="13px" font-style="normal" font-weight="bold" text-decoration="none" x="258" y="779.5">Comunità di amici</text></g></g><g transform="translate(-50,-98) scale(1,1)"><g><path fill="none" stroke="none"></path><text fill="#000000" stroke="none" font-family="Arial" font-size="13px" font-style="normal" font-weight="normal" text-decoration="none" x="229" y="802.5">-id: Long</text></g></g><g transform="translate(-50,-98) scale(1,1)"><g><path fill="none" stroke="none"></path><text fill="#000000" stroke="none" font-family="Arial" font-size="13px" font-style="normal" font-weight="normal" text-decoration="none" x="229" y="817.5">-nome: String</text></g></g><g transform="translate(-50,-98) scale(1,1)"><g><path fill="none" stroke="none"></path><text fill="#000000" stroke="none" font-family="Arial" font-size="13px" font-style="normal" font-weight="normal" text-decoration="none" x="229" y="832.5">-descrizione: String</text></g></g><g transform="translate(-50,-98) scale(1,1)"><rect fill="#C0C0C0" stroke="none" x="219" y="115" width="173" height="132" opacity="0.2"></rect></g><g transform="translate(-50,-98) scale(1,1)"><rect fill="#ffffff" stroke="none" x="212" y="108" width="173" height="132"></rect></g><g transform="translate(-50,-98) scale(1,1)"><path fill="none" stroke="#000000" d="M 212 108 L 385 108 L 385 240 L 212 240 L 212 108 Z Z" stroke-miterlimit="10"></path></g><g transform="translate(-50,-98) scale(1,1)"><path fill="none" stroke="#000000" d="M 212 133 L 385 133" stroke-miterlimit="10"></path></g><g transform="translate(-50,-98) scale(1,1)"><path fill="none" stroke="#000000" d="M 212 231 L 385 231" stroke-miterlimit="10"></path></g><g transform="translate(-50,-98) scale(1,1)"><g><path fill="none" stroke="none"></path><text fill="#000000" stroke="none" font-family="Arial" font-size="13px" font-style="normal" font-weight="bold" text-decoration="none" x="283.5" y="127.5">Serie</text></g></g><g transform="translate(-50,-98) scale(1,1)"><g><path fill="none" stroke="none"></path><text fill="#000000" stroke="none" font-family="Arial" font-size="13px" font-style="normal" font-weight="normal" text-decoration="none" x="217" y="150.5">-id: Long</text></g></g><g transform="translate(-50,-98) scale(1,1)"><g><path fill="none" stroke="none"></path><text fill="#000000" stroke="none" font-family="Arial" font-size="13px" font-style="normal" font-weight="normal" text-decoration="none" x="217" y="165.5">-nome: String</text></g></g><g transform="translate(-50,-98) scale(1,1)"><g><path fill="none" stroke="none"></path><text fill="#000000" stroke="none" font-family="Arial" font-size="13px" font-style="normal" font-weight="normal" text-decoration="none" x="217" y="180.5">-descrizione: String</text></g></g><g transform="translate(-50,-98) scale(1,1)"><g><path fill="none" stroke="none"></path><text fill="#000000" stroke="none" font-family="Arial" font-size="13px" font-style="normal" font-weight="normal" text-decoration="none" x="217" y="195.5">-annoDiPubblicazione: Date</text></g></g><g transform="translate(-50,-98) scale(1,1)"><g><path fill="none" stroke="none"></path><text fill="#000000" stroke="none" font-family="Arial" font-size="13px" font-style="normal" font-weight="normal" text-decoration="none" x="217" y="210.5">-casa: String</text></g></g><g transform="translate(-50,-98) scale(1,1)"><g><path fill="none" stroke="none"></path><text fill="#000000" stroke="none" font-family="Arial" font-size="13px" font-style="normal" font-weight="normal" text-decoration="none" x="217" y="225.5">-autore: String</text></g></g><g transform="translate(-50,-98) scale(1,1)"><rect fill="#C0C0C0" stroke="none" x="243" y="311" width="128" height="92" opacity="0.2"></rect></g><g transform="translate(-50,-98) scale(1,1)"><rect fill="#ffffff" stroke="none" x="236" y="304" width="128" height="92"></rect></g><g transform="translate(-50,-98) scale(1,1)"><path fill="none" stroke="#000000" d="M 236 304 L 364 304 L 364 396 L 236 396 L 236 304 Z Z" stroke-miterlimit="10"></path></g><g transform="translate(-50,-98) scale(1,1)"><path fill="none" stroke="#000000" d="M 236 329 L 364 329" stroke-miterlimit="10"></path></g><g transform="translate(-50,-98) scale(1,1)"><path fill="none" stroke="#000000" d="M 236 367 L 364 367" stroke-miterlimit="10"></path></g><g transform="translate(-50,-98) scale(1,1)"><g><path fill="none" stroke="none"></path><text fill="#000000" stroke="none" font-family="Arial" font-size="13px" font-style="normal" font-weight="bold" text-decoration="none" x="287" y="323.5">Albo</text></g></g><g transform="translate(-50,-98) scale(1,1)"><g><path fill="none" stroke="none"></path><text fill="#000000" stroke="none" font-family="Arial" font-size="13px" font-style="normal" font-weight="normal" text-decoration="none" x="241" y="346.5">-Volume: Integer</text></g></g><g transform="translate(-50,-98) scale(1,1)"><g><path fill="none" stroke="none"></path><text fill="#000000" stroke="none" font-family="Arial" font-size="13px" font-style="normal" font-weight="normal" text-decoration="none" x="241" y="361.5">-Prezzo: Double</text></g></g><g transform="translate(-50,-98) scale(1,1)"><path fill="none" stroke="#000000" d="M 268 304 L 268 240" stroke-miterlimit="10"></path></g><g transform="translate(-50,-98) scale(1,1)"><path fill="none" stroke="#000000" d="M 272.209517756016 250.16267485762415 L 268 240 L 263.790482243984 250.16267485762415" stroke-miterlimit="10"></path></g><g transform="translate(-50,-98) scale(1,1)"><g><path fill="none" stroke="none"></path><text fill="#000000" stroke="none" font-family="Arial" font-size="13px" font-style="normal" font-weight="normal" text-decoration="none" x="202" y="258">+Serie</text></g></g><g transform="translate(-50,-98) scale(1,1)"><g><path fill="none" stroke="none"></path><text fill="#000000" stroke="none" font-family="Arial" font-size="13px" font-style="normal" font-weight="normal" text-decoration="none" x="292" y="256">1</text></g></g><g transform="translate(-50,-98) scale(1,1)"><path fill="none" stroke="#000000" d="M 252 664 L 252 760" stroke-miterlimit="10"></path></g><g transform="translate(-50,-98) scale(1,1)"><path fill="none" stroke="#000000" d="M 256.209517756016 674.1626748576241 L 252 664 L 247.790482243984 674.1626748576241" stroke-miterlimit="10"></path></g><g transform="translate(-50,-98) scale(1,1)"><g><path fill="none" stroke="none"></path><text fill="#000000" stroke="none" font-family="Arial" font-size="13px" font-style="normal" font-weight="normal" text-decoration="none" x="256" y="689">+Admin</text></g></g><g transform="translate(-50,-98) scale(1,1)"><g><path fill="none" stroke="none"></path><text fill="#000000" stroke="none" font-family="Arial" font-size="13px" font-style="normal" font-weight="normal" text-decoration="none" x="236" y="692">1</text></g></g><g transform="translate(-50,-98) scale(1,1)"><rect fill="#C0C0C0" stroke="none" x="567" y="303" width="152" height="100" opacity="0.2"></rect></g><g transform="translate(-50,-98) scale(1,1)"><rect fill="#ffffff" stroke="none" x="560" y="296" width="152" height="100"></rect></g><g transform="translate(-50,-98) scale(1,1)"><path fill="none" stroke="#000000" d="M 560 296 L 712 296 L 712 396 L 560 396 L 560 296 Z Z" stroke-miterlimit="10"></path></g><g transform="translate(-50,-98) scale(1,1)"><path fill="none" stroke="#000000" d="M 560 321 L 712 321" stroke-miterlimit="10"></path></g><g transform="translate(-50,-98) scale(1,1)"><path fill="none" stroke="#000000" d="M 560 344 L 712 344" stroke-miterlimit="10"></path></g><g transform="translate(-50,-98) scale(1,1)"><g><path fill="none" stroke="none"></path><text fill="#000000" stroke="none" font-family="Arial" font-size="13px" font-style="normal" font-weight="bold" text-decoration="none" x="613.5" y="315.5">Prestito</text></g></g><g transform="translate(-50,-98) scale(1,1)"><g><path fill="none" stroke="none"></path><text fill="#000000" stroke="none" font-family="Arial" font-size="13px" font-style="normal" font-weight="normal" text-decoration="none" x="565" y="338.5">-dataDiInizio: Date</text></g></g><g transform="translate(-50,-98) scale(1,1)"><path fill="none" stroke="#000000" d="M 636 396 L 636 428 M 636 428 A 8 8 0 0 1 628 436 L 320 436 M 320 436 A 8 8 0 0 0 312 444 L 312 472" stroke-miterlimit="10"></path></g><g transform="translate(-50,-98) scale(1,1)"><g><path fill="none" stroke="none"></path><text fill="#000000" stroke="none" font-family="Arial" font-size="13px" font-style="normal" font-weight="normal" text-decoration="none" x="640" y="415">+Prestiti</text></g></g><g transform="translate(-50,-98) scale(1,1)"><g><path fill="none" stroke="none"></path><text fill="#000000" stroke="none" font-family="Arial" font-size="13px" font-style="normal" font-weight="normal" text-decoration="none" x="603" y="417">0..*</text></g></g><g transform="translate(-50,-98) scale(1,1)"><g><path fill="none" stroke="none"></path><text fill="#000000" stroke="none" font-family="Arial" font-size="13px" font-style="normal" font-weight="normal" text-decoration="none" x="322" y="456">+Prestato a</text></g></g><g transform="translate(-50,-98) scale(1,1)"><g><path fill="none" stroke="none"></path><text fill="#000000" stroke="none" font-family="Arial" font-size="13px" font-style="normal" font-weight="normal" text-decoration="none" x="296" y="457">1</text></g></g><g transform="translate(-50,-98) scale(1,1)"><path fill="none" stroke="#000000" d="M 332 760 L 332 664" stroke-miterlimit="10"></path></g><g transform="translate(-50,-98) scale(1,1)"><g><path fill="none" stroke="none"></path><text fill="#000000" stroke="none" font-family="Arial" font-size="13px" font-style="normal" font-weight="normal" text-decoration="none" x="275" y="752">+Iscritti</text></g></g><g transform="translate(-50,-98) scale(1,1)"><g><path fill="none" stroke="none"></path><text fill="#000000" stroke="none" font-family="Arial" font-size="13px" font-style="normal" font-weight="normal" text-decoration="none" x="342" y="753">*</text></g></g><g transform="translate(-50,-98) scale(1,1)"><g><path fill="none" stroke="none"></path><text fill="#000000" stroke="none" font-family="Arial" font-size="13px" font-style="normal" font-weight="normal" text-decoration="none" x="339" y="689">+Iscritti</text></g></g><g transform="translate(-50,-98) scale(1,1)"><g><path fill="none" stroke="none"></path><text fill="#000000" stroke="none" font-family="Arial" font-size="13px" font-style="normal" font-weight="normal" text-decoration="none" x="316" y="692">*</text></g></g><g transform="translate(-50,-98) scale(1,1)"><rect fill="#C0C0C0" stroke="none" x="707" y="487" width="164" height="112" opacity="0.2"></rect></g><g transform="translate(-50,-98) scale(1,1)"><rect fill="#ffffff" stroke="none" x="700" y="480" width="164" height="112"></rect></g><g transform="translate(-50,-98) scale(1,1)"><path fill="none" stroke="#000000" d="M 700 480 L 864 480 L 864 592 L 700 592 L 700 480 Z Z" stroke-miterlimit="10"></path></g><g transform="translate(-50,-98) scale(1,1)"><path fill="none" stroke="#000000" d="M 700 505 L 864 505" stroke-miterlimit="10"></path></g><g transform="translate(-50,-98) scale(1,1)"><path fill="none" stroke="#000000" d="M 700 515 L 864 515" stroke-miterlimit="10"></path></g><g transform="translate(-50,-98) scale(1,1)"><g><path fill="none" stroke="none"></path><text fill="#000000" stroke="none" font-family="Arial" font-size="13px" font-style="normal" font-weight="bold" text-decoration="none" x="751.5" y="499.5">comiXloan</text></g></g><g transform="translate(-50,-98) scale(1,1)"><path fill="none" stroke="#000000" d="M 359 548 L 700 548" stroke-miterlimit="10"></path></g><g transform="translate(-50,-98) scale(1,1)"><path fill="none" stroke="#000000" d="M 369.16267485762415 543.790482243984 L 359 548 L 369.16267485762415 552.209517756016" stroke-miterlimit="10"></path></g><g transform="translate(-50,-98) scale(1,1)"><g><path fill="none" stroke="none"></path><text fill="#000000" stroke="none" font-family="Arial" font-size="13px" font-style="normal" font-weight="normal" text-decoration="none" x="360" y="540">+Utente Corrente</text></g></g><g transform="translate(-50,-98) scale(1,1)"><g><path fill="none" stroke="none"></path><text fill="#000000" stroke="none" font-family="Arial" font-size="13px" font-style="normal" font-weight="normal" text-decoration="none" x="369" y="567">0..1</text></g></g><g transform="translate(-50,-98) scale(1,1)"><path fill="none" stroke="#000000" d="M 364 336 L 560 336" stroke-miterlimit="10"></path></g><g transform="translate(-50,-98) scale(1,1)"><g><path fill="none" stroke="none"></path><text fill="#000000" stroke="none" font-family="Arial" font-size="13px" font-style="normal" font-weight="normal" text-decoration="none" x="374" y="328">+Albi</text></g></g><g transform="translate(-50,-98) scale(1,1)"><g><path fill="none" stroke="none"></path><text fill="#000000" stroke="none" font-family="Arial" font-size="13px" font-style="normal" font-weight="normal" text-decoration="none" x="375" y="355">1..*</text></g></g><g transform="translate(-50,-98) scale(1,1)"><g><path fill="none" stroke="none"></path><text fill="#000000" stroke="none" font-family="Arial" font-size="13px" font-style="normal" font-weight="normal" text-decoration="none" x="444" y="328">+Prestito  in corso</text></g></g><g transform="translate(-50,-98) scale(1,1)"><g><path fill="none" stroke="none"></path><text fill="#000000" stroke="none" font-family="Arial" font-size="13px" font-style="normal" font-weight="normal" text-decoration="none" x="526" y="353">0..1</text></g></g><g transform="translate(-50,-98) scale(1,1)"><path fill="none" stroke="#000000" d="M 232 540 L 136 540 M 136 540 A 8 8 0 0 1 128 532 L 128 372 M 128 372 A 8 8 0 0 1 136 364 L 236 364" stroke-miterlimit="10"></path></g><g transform="translate(-50,-98) scale(1,1)"><path fill="none" stroke="#000000" d="M 225.83732514237585 368.209517756016 L 236 364 L 225.83732514237585 359.790482243984" stroke-miterlimit="10"></path></g><g transform="translate(-50,-98) scale(1,1)"><g><path fill="none" stroke="none"></path><text fill="#000000" stroke="none" font-family="Arial" font-size="13px" font-style="normal" font-weight="normal" text-decoration="none" x="151" y="355">+Possiede</text></g></g><g transform="translate(-50,-98) scale(1,1)"><g><path fill="none" stroke="none"></path><text fill="#000000" stroke="none" font-family="Arial" font-size="13px" font-style="normal" font-weight="normal" text-decoration="none" x="204" y="383">0..*</text></g></g><g transform="translate(-50,-98) scale(1,1)"><path fill="none" stroke="#000000" d="M 224 848 L 68 848 M 68 848 A 8 8 0 0 1 60 840 L 60 328 M 60 328 A 8 8 0 0 1 68 320 L 236 320" stroke-miterlimit="10" stroke-dasharray="3"></path></g><g transform="translate(-50,-98) scale(1,1)"><path fill="none" stroke="#000000" d="M 225.83732514237585 324.209517756016 L 236 320 L 225.83732514237585 315.790482243984" stroke-miterlimit="10"></path></g><g transform="translate(-50,-98) scale(1,1)"><g><path fill="none" stroke="none"></path><text fill="#000000" stroke="none" font-family="Arial" font-size="13px" font-style="normal" font-weight="normal" text-decoration="none" x="94" y="308">+Serie della comunità</text></g></g><g transform="translate(-50,-98) scale(1,1)"><rect fill="#C0C0C0" stroke="none" x="811" y="307" width="120" height="72" opacity="0.2"></rect></g><g transform="translate(-50,-98) scale(1,1)"><rect fill="#ffffff" stroke="none" x="804" y="300" width="120" height="72"></rect></g><g transform="translate(-50,-98) scale(1,1)"><path fill="none" stroke="#000000" d="M 804 300 L 924 300 L 924 372 L 804 372 L 804 300 Z Z" stroke-miterlimit="10"></path></g><g transform="translate(-50,-98) scale(1,1)"><path fill="none" stroke="#000000" d="M 804 325 L 924 325" stroke-miterlimit="10"></path></g><g transform="translate(-50,-98) scale(1,1)"><path fill="none" stroke="#000000" d="M 804 363 L 924 363" stroke-miterlimit="10"></path></g><g transform="translate(-50,-98) scale(1,1)"><g><path fill="none" stroke="none"></path><text fill="#000000" stroke="none" font-family="Arial" font-size="13px" font-style="normal" font-weight="bold" text-decoration="none" x="821" y="319.5">StoricoPrestito</text></g></g><g transform="translate(-50,-98) scale(1,1)"><g><path fill="none" stroke="none"></path><text fill="#000000" stroke="none" font-family="Arial" font-size="13px" font-style="normal" font-weight="normal" text-decoration="none" x="809" y="342.5">+dateDiInzio: Date</text></g></g><g transform="translate(-50,-98) scale(1,1)"><g><path fill="none" stroke="none"></path><text fill="#000000" stroke="none" font-family="Arial" font-size="13px" font-style="normal" font-weight="normal" text-decoration="none" x="809" y="357.5">+dataDiInizio: Date</text></g></g><g transform="translate(-50,-98) scale(1,1)"><path fill="none" stroke="#000000" d="M 864 300 L 864 264 M 864 264 A 8 8 0 0 0 856 256 L 348 256 M 348 256 A 8 8 0 0 0 340 264 L 340 304" stroke-miterlimit="10"></path></g><g transform="translate(-50,-98) scale(1,1)"><path fill="none" stroke="#000000" d="M 335.790482243984 293.83732514237585 L 340 304 L 344.209517756016 293.83732514237585" stroke-miterlimit="10"></path></g><g transform="translate(-50,-98) scale(1,1)"><g><path fill="none" stroke="none"></path><text fill="#000000" stroke="none" font-family="Arial" font-size="13px" font-style="normal" font-weight="normal" text-decoration="none" x="343" y="293">+Albi</text></g></g><g transform="translate(-50,-98) scale(1,1)"><g><path fill="none" stroke="none"></path><text fill="#000000" stroke="none" font-family="Arial" font-size="13px" font-style="normal" font-weight="normal" text-decoration="none" x="317" y="289">0..*</text></g></g><g transform="translate(-50,-98) scale(1,1)"><path fill="none" stroke="#000000" d="M 359 488 L 644 488 M 644 488 A 8 8 0 0 0 652 480 L 652 452 M 652 452 A 8 8 0 0 1 660 444 L 860 444 M 860 444 A 8 8 0 0 0 868 436 L 868 372" stroke-miterlimit="10"></path></g><g transform="translate(-50,-98) scale(1,1)"><g><path fill="none" stroke="none"></path><text fill="#000000" stroke="none" font-family="Arial" font-size="13px" font-style="normal" font-weight="normal" text-decoration="none" x="359" y="480">+Prestato a</text></g></g><g transform="translate(-50,-98) scale(1,1)"><g><path fill="none" stroke="none"></path><text fill="#000000" stroke="none" font-family="Arial" font-size="13px" font-style="normal" font-weight="normal" text-decoration="none" x="377" y="507">1</text></g></g><g transform="translate(-50,-98) scale(1,1)"><g><path fill="none" stroke="none"></path><text fill="#000000" stroke="none" font-family="Arial" font-size="13px" font-style="normal" font-weight="normal" text-decoration="none" x="807" y="392">+Prestiti</text></g></g><g transform="translate(-50,-98) scale(1,1)"><g><path fill="none" stroke="none"></path><text fill="#000000" stroke="none" font-family="Arial" font-size="13px" font-style="normal" font-weight="normal" text-decoration="none" x="879" y="392">0..*</text></g></g></g></svg>