<svg version="1.1" xmlns="http://www.w3.org/2000/svg" xmlns:xlink="http://www.w3.org/1999/xlink" width="824" height="928"><defs></defs><g><g transform="translate(-50,2) scale(1,1)"><rect fill="#C0C0C0" stroke="none" x="239" y="479" width="127" height="192" opacity="0.2"></rect></g><g transform="translate(-50,2) scale(1,1)"><rect fill="#ffffff" stroke="none" x="232" y="472" width="127" height="192"></rect></g><g transform="translate(-50,2) scale(1,1)"><path fill="none" stroke="#000000" d="M 232 472 L 359 472 L 359 664 L 232 664 L 232 472 Z Z" stroke-miterlimit="10"></path></g><g transform="translate(-50,2) scale(1,1)"><path fill="none" stroke="#000000" d="M 232 497 L 359 497" stroke-miterlimit="10"></path></g><g transform="translate(-50,2) scale(1,1)"><path fill="none" stroke="#000000" d="M 232 595 L 359 595" stroke-miterlimit="10"></path></g><g transform="translate(-50,2) scale(1,1)"><g><path fill="none" stroke="none"></path><text fill="#000000" stroke="none" font-family="Arial" font-size="13px" font-style="normal" font-weight="bold" text-decoration="none" x="276.5" y="491.5">Utente</text></g></g><g transform="translate(-50,2) scale(1,1)"><g><path fill="none" stroke="none"></path><text fill="#000000" stroke="none" font-family="Arial" font-size="13px" font-style="normal" font-weight="normal" text-decoration="none" x="237" y="514.5">-id: Long</text></g></g><g transform="translate(-50,2) scale(1,1)"><g><path fill="none" stroke="none"></path><text fill="#000000" stroke="none" font-family="Arial" font-size="13px" font-style="normal" font-weight="normal" text-decoration="none" x="237" y="529.5">-username: String</text></g></g><g transform="translate(-50,2) scale(1,1)"><g><path fill="none" stroke="none"></path><text fill="#000000" stroke="none" font-family="Arial" font-size="13px" font-style="normal" font-weight="normal" text-decoration="none" x="237" y="544.5">-password: String</text></g></g><g transform="translate(-50,2) scale(1,1)"><g><path fill="none" stroke="none"></path><text fill="#000000" stroke="none" font-family="Arial" font-size="13px" font-style="normal" font-weight="normal" text-decoration="none" x="237" y="559.5">-email: String</text></g></g><g transform="translate(-50,2) scale(1,1)"><g><path fill="none" stroke="none"></path><text fill="#000000" stroke="none" font-family="Arial" font-size="13px" font-style="normal" font-weight="normal" text-decoration="none" x="237" y="574.5">-nome: String</text></g></g><g transform="translate(-50,2) scale(1,1)"><g><path fill="none" stroke="none"></path><text fill="#000000" stroke="none" font-family="Arial" font-size="13px" font-style="normal" font-weight="normal" text-decoration="none" x="237" y="589.5">-cognome: String</text></g></g><g transform="translate(-50,2) scale(1,1)"><rect fill="#C0C0C0" stroke="none" x="231" y="767" width="172" height="156" opacity="0.2"></rect></g><g transform="translate(-50,2) scale(1,1)"><rect fill="#ffffff" stroke="none" x="224" y="760" width="172" height="156"></rect></g><g transform="translate(-50,2) scale(1,1)"><path fill="none" stroke="#000000" d="M 224 760 L 396 760 L 396 916 L 224 916 L 224 760 Z Z" stroke-miterlimit="10"></path></g><g transform="translate(-50,2) scale(1,1)"><path fill="none" stroke="#000000" d="M 224 785 L 396 785" stroke-miterlimit="10"></path></g><g transform="translate(-50,2) scale(1,1)"><path fill="none" stroke="#000000" d="M 224 838 L 396 838" stroke-miterlimit="10"></path></g><g transform="translate(-50,2) scale(1,1)"><g><path fill="none" stroke="none"></path><text fill="#000000" stroke="none" font-family="Arial" font-size="13px" font-style="normal" font-weight="bold" text-decoration="none" x="258" y="779.5">Comunità di amici</text></g></g><g transform="translate(-50,2) scale(1,1)"><g><path fill="none" stroke="none"></path><text fill="#000000" stroke="none" font-family="Arial" font-size="13px" font-style="normal" font-weight="normal" text-decoration="none" x="229" y="802.5">-id: Long</text></g></g><g transform="translate(-50,2) scale(1,1)"><g><path fill="none" stroke="none"></path><text fill="#000000" stroke="none" font-family="Arial" font-size="13px" font-style="normal" font-weight="normal" text-decoration="none" x="229" y="817.5">-nome: String</text></g></g><g transform="translate(-50,2) scale(1,1)"><g><path fill="none" stroke="none"></path><text fill="#000000" stroke="none" font-family="Arial" font-size="13px" font-style="normal" font-weight="normal" text-decoration="none" x="229" y="832.5">-descrizione: String</text></g></g><g transform="translate(-50,2) scale(1,1)"><rect fill="#C0C0C0" stroke="none" x="219" y="115" width="173" height="131" opacity="0.2"></rect></g><g transform="translate(-50,2) scale(1,1)"><rect fill="#ffffff" stroke="none" x="212" y="108" width="173" height="131"></rect></g><g transform="translate(-50,2) scale(1,1)"><path fill="none" stroke="#000000" d="M 212 108 L 385 108 L 385 239 L 212 239 L 212 108 Z Z" stroke-miterlimit="10"></path></g><g transform="translate(-50,2) scale(1,1)"><path fill="none" stroke="#000000" d="M 212 133 L 385 133" stroke-miterlimit="10"></path></g><g transform="translate(-50,2) scale(1,1)"><path fill="none" stroke="#000000" d="M 212 216 L 385 216" stroke-miterlimit="10"></path></g><g transform="translate(-50,2) scale(1,1)"><g><path fill="none" stroke="none"></path><text fill="#000000" stroke="none" font-family="Arial" font-size="13px" font-style="normal" font-weight="bold" text-decoration="none" x="283.5" y="127.5">Serie</text></g></g><g transform="translate(-50,2) scale(1,1)"><g><path fill="none" stroke="none"></path><text fill="#000000" stroke="none" font-family="Arial" font-size="13px" font-style="normal" font-weight="normal" text-decoration="none" x="217" y="150.5">-id: Long</text></g></g><g transform="translate(-50,2) scale(1,1)"><g><path fill="none" stroke="none"></path><text fill="#000000" stroke="none" font-family="Arial" font-size="13px" font-style="normal" font-weight="normal" text-decoration="none" x="217" y="165.5">-nome: String</text></g></g><g transform="translate(-50,2) scale(1,1)"><g><path fill="none" stroke="none"></path><text fill="#000000" stroke="none" font-family="Arial" font-size="13px" font-style="normal" font-weight="normal" text-decoration="none" x="217" y="180.5">-descrizione: String</text></g></g><g transform="translate(-50,2) scale(1,1)"><g><path fill="none" stroke="none"></path><text fill="#000000" stroke="none" font-family="Arial" font-size="13px" font-style="normal" font-weight="normal" text-decoration="none" x="217" y="195.5">-annoDiPubblicazione: Date</text></g></g><g transform="translate(-50,2) scale(1,1)"><g><path fill="none" stroke="none"></path><text fill="#000000" stroke="none" font-family="Arial" font-size="13px" font-style="normal" font-weight="normal" text-decoration="none" x="217" y="210.5">-casa: Casa</text></g></g><g transform="translate(-50,2) scale(1,1)"><rect fill="#C0C0C0" stroke="none" x="243" y="311" width="128" height="92" opacity="0.2"></rect></g><g transform="translate(-50,2) scale(1,1)"><rect fill="#ffffff" stroke="none" x="236" y="304" width="128" height="92"></rect></g><g transform="translate(-50,2) scale(1,1)"><path fill="none" stroke="#000000" d="M 236 304 L 364 304 L 364 396 L 236 396 L 236 304 Z Z" stroke-miterlimit="10"></path></g><g transform="translate(-50,2) scale(1,1)"><path fill="none" stroke="#000000" d="M 236 329 L 364 329" stroke-miterlimit="10"></path></g><g transform="translate(-50,2) scale(1,1)"><path fill="none" stroke="#000000" d="M 236 367 L 364 367" stroke-miterlimit="10"></path></g><g transform="translate(-50,2) scale(1,1)"><g><path fill="none" stroke="none"></path><text fill="#000000" stroke="none" font-family="Arial" font-size="13px" font-style="normal" font-weight="bold" text-decoration="none" x="287" y="323.5">Albo</text></g></g><g transform="translate(-50,2) scale(1,1)"><g><path fill="none" stroke="none"></path><text fill="#000000" stroke="none" font-family="Arial" font-size="13px" font-style="normal" font-weight="normal" text-decoration="none" x="241" y="346.5">-Volume: Integer</text></g></g><g transform="translate(-50,2) scale(1,1)"><g><path fill="none" stroke="none"></path><text fill="#000000" stroke="none" font-family="Arial" font-size="13px" font-style="normal" font-weight="normal" text-decoration="none" x="241" y="361.5">-Prezzo: Double</text></g></g><g transform="translate(-50,2) scale(1,1)"><path fill="none" stroke="#000000" d="M 299 303 L 299 240" stroke-miterlimit="10"></path></g><g transform="translate(-50,2) scale(1,1)"><g><path fill="none" stroke="none"></path><text fill="#000000" stroke="none" font-family="Arial" font-size="13px" font-style="normal" font-weight="normal" text-decoration="none" x="242" y="293">+Albi</text></g></g><g transform="translate(-50,2) scale(1,1)"><g><path fill="none" stroke="none"></path><text fill="#000000" stroke="none" font-family="Arial" font-size="13px" font-style="normal" font-weight="normal" text-decoration="none" x="318" y="296">0..*</text></g></g><g transform="translate(-50,2) scale(1,1)"><g><path fill="none" stroke="none"></path><text fill="#000000" stroke="none" font-family="Arial" font-size="13px" font-style="normal" font-weight="normal" text-decoration="none" x="233" y="258">+Serie</text></g></g><g transform="translate(-50,2) scale(1,1)"><g><path fill="none" stroke="none"></path><text fill="#000000" stroke="none" font-family="Arial" font-size="13px" font-style="normal" font-weight="normal" text-decoration="none" x="323" y="256">1</text></g></g><g transform="translate(-50,2) scale(1,1)"><path fill="none" stroke="#000000" d="M 252 664 L 252 760" stroke-miterlimit="10"></path></g><g transform="translate(-50,2) scale(1,1)"><g><path fill="none" stroke="none"></path><text fill="#000000" stroke="none" font-family="Arial" font-size="13px" font-style="normal" font-weight="normal" text-decoration="none" x="256" y="689">+Admin</text></g></g><g transform="translate(-50,2) scale(1,1)"><g><path fill="none" stroke="none"></path><text fill="#000000" stroke="none" font-family="Arial" font-size="13px" font-style="normal" font-weight="normal" text-decoration="none" x="236" y="692">1</text></g></g><g transform="translate(-50,2) scale(1,1)"><g><path fill="none" stroke="none"></path><text fill="#000000" stroke="none" font-family="Arial" font-size="13px" font-style="normal" font-weight="normal" text-decoration="none" x="259" y="741">+Iscritto</text></g></g><g transform="translate(-50,2) scale(1,1)"><g><path fill="none" stroke="none"></path><text fill="#000000" stroke="none" font-family="Arial" font-size="13px" font-style="normal" font-weight="normal" text-decoration="none" x="237" y="745">*</text></g></g><g transform="translate(-50,2) scale(1,1)"><rect fill="#C0C0C0" stroke="none" x="567" y="303" width="152" height="100" opacity="0.2"></rect></g><g transform="translate(-50,2) scale(1,1)"><rect fill="#ffffff" stroke="none" x="560" y="296" width="152" height="100"></rect></g><g transform="translate(-50,2) scale(1,1)"><path fill="none" stroke="#000000" d="M 560 296 L 712 296 L 712 396 L 560 396 L 560 296 Z Z" stroke-miterlimit="10"></path></g><g transform="translate(-50,2) scale(1,1)"><path fill="none" stroke="#000000" d="M 560 321 L 712 321" stroke-miterlimit="10"></path></g><g transform="translate(-50,2) scale(1,1)"><path fill="none" stroke="#000000" d="M 560 374 L 712 374" stroke-miterlimit="10"></path></g><g transform="translate(-50,2) scale(1,1)"><g><path fill="none" stroke="none"></path><text fill="#000000" stroke="none" font-family="Arial" font-size="13px" font-style="normal" font-weight="bold" text-decoration="none" x="613.5" y="315.5">Prestito</text></g></g><g transform="translate(-50,2) scale(1,1)"><g><path fill="none" stroke="none"></path><text fill="#000000" stroke="none" font-family="Arial" font-size="13px" font-style="normal" font-weight="normal" text-decoration="none" x="565" y="338.5">-dataDiInizio: Date</text></g></g><g transform="translate(-50,2) scale(1,1)"><g><path fill="none" stroke="none"></path><text fill="#000000" stroke="none" font-family="Arial" font-size="13px" font-style="normal" font-weight="normal" text-decoration="none" x="565" y="353.5">-dataDiFine: Date</text></g></g><g transform="translate(-50,2) scale(1,1)"><g><path fill="none" stroke="none"></path><text fill="#000000" stroke="none" font-family="Arial" font-size="13px" font-style="normal" font-weight="normal" text-decoration="none" x="565" y="368.5">-attivo: Boolean</text></g></g><g transform="translate(-50,2) scale(1,1)"><path fill="none" stroke="#000000" d="M 560 368 L 364 368" stroke-miterlimit="10"></path></g><g transform="translate(-50,2) scale(1,1)"><path fill="none" stroke="#000000" d="M 374.16267485762415 363.790482243984 L 364 368 L 374.16267485762415 372.209517756016" stroke-miterlimit="10"></path></g><g transform="translate(-50,2) scale(1,1)"><g><path fill="none" stroke="none"></path><text fill="#000000" stroke="none" font-family="Arial" font-size="13px" font-style="normal" font-weight="normal" text-decoration="none" x="374" y="389">+Albi</text></g></g><g transform="translate(-50,2) scale(1,1)"><g><path fill="none" stroke="none"></path><text fill="#000000" stroke="none" font-family="Arial" font-size="13px" font-style="normal" font-weight="normal" text-decoration="none" x="375" y="362">1..*</text></g></g><g transform="translate(-50,2) scale(1,1)"><path fill="none" stroke="#000000" d="M 636 396 L 636 480 M 636 480 A 8 8 0 0 1 628 488 L 359 488" stroke-miterlimit="10"></path></g><g transform="translate(-50,2) scale(1,1)"><g><path fill="none" stroke="none"></path><text fill="#000000" stroke="none" font-family="Arial" font-size="13px" font-style="normal" font-weight="normal" text-decoration="none" x="640" y="415">+Prestiti</text></g></g><g transform="translate(-50,2) scale(1,1)"><g><path fill="none" stroke="none"></path><text fill="#000000" stroke="none" font-family="Arial" font-size="13px" font-style="normal" font-weight="normal" text-decoration="none" x="603" y="417">0..*</text></g></g><g transform="translate(-50,2) scale(1,1)"><g><path fill="none" stroke="none"></path><text fill="#000000" stroke="none" font-family="Arial" font-size="13px" font-style="normal" font-weight="normal" text-decoration="none" x="365" y="506">+Prestato a</text></g></g><g transform="translate(-50,2) scale(1,1)"><g><path fill="none" stroke="none"></path><text fill="#000000" stroke="none" font-family="Arial" font-size="13px" font-style="normal" font-weight="normal" text-decoration="none" x="377" y="482">1</text></g></g><g transform="translate(-50,2) scale(1,1)"><path fill="none" stroke="#000000" d="M 332 760 L 332 664" stroke-miterlimit="10"></path></g><g transform="translate(-50,2) scale(1,1)"><path fill="none" stroke="#000000" d="M 336.209517756016 674.1626748576241 L 332 664 L 327.790482243984 674.1626748576241" stroke-miterlimit="10"></path></g><g transform="translate(-50,2) scale(1,1)"><g><path fill="none" stroke="none"></path><text fill="#000000" stroke="none" font-family="Arial" font-size="13px" font-style="normal" font-weight="normal" text-decoration="none" x="339" y="689">+Iscritti</text></g></g><g transform="translate(-50,2) scale(1,1)"><g><path fill="none" stroke="none"></path><text fill="#000000" stroke="none" font-family="Arial" font-size="13px" font-style="normal" font-weight="normal" text-decoration="none" x="316" y="692">*</text></g></g><g transform="translate(-50,2) scale(1,1)"><rect fill="#C0C0C0" stroke="none" x="707" y="487" width="164" height="112" opacity="0.2"></rect></g><g transform="translate(-50,2) scale(1,1)"><rect fill="#ffffff" stroke="none" x="700" y="480" width="164" height="112"></rect></g><g transform="translate(-50,2) scale(1,1)"><path fill="none" stroke="#000000" d="M 700 480 L 864 480 L 864 592 L 700 592 L 700 480 Z Z" stroke-miterlimit="10"></path></g><g transform="translate(-50,2) scale(1,1)"><path fill="none" stroke="#000000" d="M 700 505 L 864 505" stroke-miterlimit="10"></path></g><g transform="translate(-50,2) scale(1,1)"><path fill="none" stroke="#000000" d="M 700 515 L 864 515" stroke-miterlimit="10"></path></g><g transform="translate(-50,2) scale(1,1)"><g><path fill="none" stroke="none"></path><text fill="#000000" stroke="none" font-family="Arial" font-size="13px" font-style="normal" font-weight="bold" text-decoration="none" x="751.5" y="499.5">comiXloan</text></g></g><g transform="translate(-50,2) scale(1,1)"><path fill="none" stroke="#000000" d="M 359 548 L 700 548" stroke-miterlimit="10"></path></g><g transform="translate(-50,2) scale(1,1)"><path fill="none" stroke="#000000" d="M 369.16267485762415 543.790482243984 L 359 548 L 369.16267485762415 552.209517756016" stroke-miterlimit="10"></path></g><g transform="translate(-50,2) scale(1,1)"><g><path fill="none" stroke="none"></path><text fill="#000000" stroke="none" font-family="Arial" font-size="13px" font-style="normal" font-weight="normal" text-decoration="none" x="360" y="540">+Utente Corrente</text></g></g><g transform="translate(-50,2) scale(1,1)"><g><path fill="none" stroke="none"></path><text fill="#000000" stroke="none" font-family="Arial" font-size="13px" font-style="normal" font-weight="normal" text-decoration="none" x="369" y="567">0..1</text></g></g><g transform="translate(-50,2) scale(1,1)"><rect fill="#C0C0C0" stroke="none" x="503" y="15" width="112" height="96" opacity="0.2"></rect></g><g transform="translate(-50,2) scale(1,1)"><rect fill="#ffffff" stroke="none" x="496" y="8" width="112" height="96"></rect></g><g transform="translate(-50,2) scale(1,1)"><path fill="none" stroke="#000000" d="M 496 8 L 608 8 L 608 104 L 496 104 L 496 8 Z Z" stroke-miterlimit="10"></path></g><g transform="translate(-50,2) scale(1,1)"><path fill="none" stroke="#000000" d="M 496 33 L 608 33" stroke-miterlimit="10"></path></g><g transform="translate(-50,2) scale(1,1)"><path fill="none" stroke="#000000" d="M 496 71 L 608 71" stroke-miterlimit="10"></path></g><g transform="translate(-50,2) scale(1,1)"><g><path fill="none" stroke="none"></path><text fill="#000000" stroke="none" font-family="Arial" font-size="13px" font-style="normal" font-weight="bold" text-decoration="none" x="533" y="27.5">Autore</text></g></g><g transform="translate(-50,2) scale(1,1)"><g><path fill="none" stroke="none"></path><text fill="#000000" stroke="none" font-family="Arial" font-size="13px" font-style="normal" font-weight="normal" text-decoration="none" x="501" y="50.5">-id: Long</text></g></g><g transform="translate(-50,2) scale(1,1)"><g><path fill="none" stroke="none"></path><text fill="#000000" stroke="none" font-family="Arial" font-size="13px" font-style="normal" font-weight="normal" text-decoration="none" x="501" y="65.5">-nome: Long</text></g></g><g transform="translate(-50,2) scale(1,1)"><path fill="none" stroke="#000000" d="M 296 108 L 296 88 M 296 88 A 8 8 0 0 1 304 80 L 496 80" stroke-miterlimit="10"></path></g><g transform="translate(-50,2) scale(1,1)"><g><path fill="none" stroke="none"></path><text fill="#000000" stroke="none" font-family="Arial" font-size="13px" font-style="normal" font-weight="normal" text-decoration="none" x="199" y="98">+Pubblicazioni</text></g></g><g transform="translate(-50,2) scale(1,1)"><g><path fill="none" stroke="none"></path><text fill="#000000" stroke="none" font-family="Arial" font-size="13px" font-style="normal" font-weight="normal" text-decoration="none" x="308" y="105">*</text></g></g><g transform="translate(-50,2) scale(1,1)"><g><path fill="none" stroke="none"></path><text fill="#000000" stroke="none" font-family="Arial" font-size="13px" font-style="normal" font-weight="normal" text-decoration="none" x="434" y="68">+Autore</text></g></g><g transform="translate(-50,2) scale(1,1)"><g><path fill="none" stroke="none"></path><text fill="#000000" stroke="none" font-family="Arial" font-size="13px" font-style="normal" font-weight="normal" text-decoration="none" x="472" y="99">*</text></g></g><g transform="translate(-50,2) scale(1,1)"><path fill="none" stroke="#000000" d="M 364 316 L 560 316" stroke-miterlimit="10"></path></g><g transform="translate(-50,2) scale(1,1)"><path fill="none" stroke="#000000" d="M 549.8373251423759 320.209517756016 L 560 316 L 549.8373251423758 311.790482243984" stroke-miterlimit="10"></path></g><g transform="translate(-50,2) scale(1,1)"><g><path fill="none" stroke="none"></path><text fill="#000000" stroke="none" font-family="Arial" font-size="13px" font-style="normal" font-weight="normal" text-decoration="none" x="444" y="308">+Prestito  in corso</text></g></g><g transform="translate(-50,2) scale(1,1)"><g><path fill="none" stroke="none"></path><text fill="#000000" stroke="none" font-family="Arial" font-size="13px" font-style="normal" font-weight="normal" text-decoration="none" x="526" y="333">0..1</text></g></g><g transform="translate(-50,2) scale(1,1)"><path fill="none" stroke="#000000" d="M 232 540 L 136 540 M 136 540 A 8 8 0 0 1 128 532 L 128 196 M 128 196 A 8 8 0 0 1 136 188 L 212 188" stroke-miterlimit="10"></path></g><g transform="translate(-50,2) scale(1,1)"><path fill="none" stroke="#000000" d="M 201.83732514237585 192.209517756016 L 212 188 L 201.83732514237585 183.790482243984" stroke-miterlimit="10"></path></g><g transform="translate(-50,2) scale(1,1)"><g><path fill="none" stroke="none"></path><text fill="#000000" stroke="none" font-family="Arial" font-size="13px" font-style="normal" font-weight="normal" text-decoration="none" x="127" y="179">+Possiede</text></g></g><g transform="translate(-50,2) scale(1,1)"><g><path fill="none" stroke="none"></path><text fill="#000000" stroke="none" font-family="Arial" font-size="13px" font-style="normal" font-weight="normal" text-decoration="none" x="180" y="207">0..*</text></g></g><g transform="translate(-50,2) scale(1,1)"><rect fill="#C0C0C0" stroke="none" x="507" y="131" width="77" height="37" opacity="0.2"></rect></g><g transform="translate(-50,2) scale(1,1)"><rect fill="#ffffff" stroke="none" x="500" y="124" width="77" height="37"></rect></g><g transform="translate(-50,2) scale(1,1)"><path fill="none" stroke="#000000" d="M 500 124 L 577 124 L 577 161 L 500 161 L 500 124 Z Z" stroke-miterlimit="10"></path></g><g transform="translate(-50,2) scale(1,1)"><g><path fill="none" stroke="none"></path><text fill="#000000" stroke="none" font-family="Arial" font-size="13px" font-style="normal" font-weight="normal" text-decoration="none" x="504.5" y="141.5">«dataType»</text></g></g><g transform="translate(-50,2) scale(1,1)"><g><path fill="none" stroke="none"></path><text fill="#000000" stroke="none" font-family="Arial" font-size="13px" font-style="normal" font-weight="bold" text-decoration="none" x="523.5" y="156.5">Casa</text></g></g><g transform="translate(-50,2) scale(1,1)"><path fill="none" stroke="#000000" d="M 224 848 L 68 848 M 68 848 A 8 8 0 0 1 60 840 L 60 148 M 60 148 A 8 8 0 0 1 68 140 L 212 140" stroke-miterlimit="10" stroke-dasharray="3"></path></g><g transform="translate(-50,2) scale(1,1)"><path fill="none" stroke="#000000" d="M 201.83732514237585 144.209517756016 L 212 140 L 201.83732514237585 135.790482243984" stroke-miterlimit="10"></path></g><g transform="translate(-50,2) scale(1,1)"><g><path fill="none" stroke="none"></path><text fill="#000000" stroke="none" font-family="Arial" font-size="13px" font-style="normal" font-weight="normal" text-decoration="none" x="67" y="133">+Serie della comunità</text></g></g></g></svg>