<svg version="1.1" xmlns="http://www.w3.org/2000/svg" xmlns:xlink="http://www.w3.org/1999/xlink" width="647" height="496"><defs></defs><g><g transform="translate(-46,-42) scale(1,1)"><rect fill="#C0C0C0" stroke="none" x="63" y="59" width="184" height="150" opacity="0.2"></rect></g><g transform="translate(-46,-42) scale(1,1)"><rect fill="#ffffff" stroke="none" x="56" y="52" width="184" height="150"></rect></g><g transform="translate(-46,-42) scale(1,1)"><path fill="none" stroke="#000000" d="M 56 52 L 240 52 L 240 202 L 56 202 L 56 52 Z Z" stroke-miterlimit="10"></path></g><g transform="translate(-46,-42) scale(1,1)"><path fill="none" stroke="#000000" d="M 56 75 L 240 75" stroke-miterlimit="10"></path></g><g transform="translate(-46,-42) scale(1,1)"><path fill="none" stroke="#000000" d="M 66 75 L 66 202" stroke-miterlimit="10"></path></g><g transform="translate(-46,-42) scale(1,1)"><path fill="none" stroke="#000000" d="M 137 75 L 137 202" stroke-miterlimit="10"></path></g><g transform="translate(-46,-42) scale(1,1)"><g><path fill="none" stroke="none"></path><text fill="#000000" stroke="none" font-family="Arial" font-size="13px" font-style="normal" font-weight="bold" text-decoration="none" x="129" y="69.5">Utente</text></g></g><g transform="translate(-46,-42) scale(1,1)"><g><path fill="none" stroke="none"></path><text fill="#000000" stroke="none" font-family="Arial" font-size="13px" font-style="normal" font-weight="normal" text-decoration="none" x="61" y="93"></text></g></g><g transform="translate(-46,-42) scale(1,1)"><g><path fill="none" stroke="none"></path><text fill="#000000" stroke="none" font-family="Arial" font-size="13px" font-style="normal" font-weight="normal" text-decoration="none" x="71" y="93">id</text></g></g><g transform="translate(-46,-42) scale(1,1)"><g><path fill="none" stroke="none"></path><text fill="#000000" stroke="none" font-family="Arial" font-size="13px" font-style="normal" font-weight="normal" text-decoration="none" x="142" y="93">long</text></g></g><g transform="translate(-46,-42) scale(1,1)"><g><path fill="none" stroke="none"></path><text fill="#000000" stroke="none" font-family="Arial" font-size="13px" font-style="normal" font-weight="normal" text-decoration="none" x="61" y="108"></text></g></g><g transform="translate(-46,-42) scale(1,1)"><g><path fill="none" stroke="none"></path><text fill="#000000" stroke="none" font-family="Arial" font-size="13px" font-style="normal" font-weight="normal" text-decoration="none" x="71" y="108">username</text></g></g><g transform="translate(-46,-42) scale(1,1)"><g><path fill="none" stroke="none"></path><text fill="#000000" stroke="none" font-family="Arial" font-size="13px" font-style="normal" font-weight="normal" text-decoration="none" x="142" y="108">character[](30)</text></g></g><g transform="translate(-46,-42) scale(1,1)"><g><path fill="none" stroke="none"></path><text fill="#000000" stroke="none" font-family="Arial" font-size="13px" font-style="normal" font-weight="normal" text-decoration="none" x="61" y="123"></text></g></g><g transform="translate(-46,-42) scale(1,1)"><g><path fill="none" stroke="none"></path><text fill="#000000" stroke="none" font-family="Arial" font-size="13px" font-style="normal" font-weight="normal" text-decoration="none" x="71" y="123">password</text></g></g><g transform="translate(-46,-42) scale(1,1)"><g><path fill="none" stroke="none"></path><text fill="#000000" stroke="none" font-family="Arial" font-size="13px" font-style="normal" font-weight="normal" text-decoration="none" x="142" y="123">character[](30)</text></g></g><g transform="translate(-46,-42) scale(1,1)"><g><path fill="none" stroke="none"></path><text fill="#000000" stroke="none" font-family="Arial" font-size="13px" font-style="normal" font-weight="normal" text-decoration="none" x="61" y="138"></text></g></g><g transform="translate(-46,-42) scale(1,1)"><g><path fill="none" stroke="none"></path><text fill="#000000" stroke="none" font-family="Arial" font-size="13px" font-style="normal" font-weight="normal" text-decoration="none" x="71" y="138">email</text></g></g><g transform="translate(-46,-42) scale(1,1)"><g><path fill="none" stroke="none"></path><text fill="#000000" stroke="none" font-family="Arial" font-size="13px" font-style="normal" font-weight="normal" text-decoration="none" x="142" y="138">character[](100)</text></g></g><g transform="translate(-46,-42) scale(1,1)"><g><path fill="none" stroke="none"></path><text fill="#000000" stroke="none" font-family="Arial" font-size="13px" font-style="normal" font-weight="normal" text-decoration="none" x="61" y="153"></text></g></g><g transform="translate(-46,-42) scale(1,1)"><g><path fill="none" stroke="none"></path><text fill="#000000" stroke="none" font-family="Arial" font-size="13px" font-style="normal" font-weight="normal" text-decoration="none" x="71" y="153">nome</text></g></g><g transform="translate(-46,-42) scale(1,1)"><g><path fill="none" stroke="none"></path><text fill="#000000" stroke="none" font-family="Arial" font-size="13px" font-style="normal" font-weight="normal" text-decoration="none" x="142" y="153">character[](100)</text></g></g><g transform="translate(-46,-42) scale(1,1)"><g><path fill="none" stroke="none"></path><text fill="#000000" stroke="none" font-family="Arial" font-size="13px" font-style="normal" font-weight="normal" text-decoration="none" x="61" y="168"></text></g></g><g transform="translate(-46,-42) scale(1,1)"><g><path fill="none" stroke="none"></path><text fill="#000000" stroke="none" font-family="Arial" font-size="13px" font-style="normal" font-weight="normal" text-decoration="none" x="71" y="168">cognome</text></g></g><g transform="translate(-46,-42) scale(1,1)"><g><path fill="none" stroke="none"></path><text fill="#000000" stroke="none" font-family="Arial" font-size="13px" font-style="normal" font-weight="normal" text-decoration="none" x="142" y="168">character[](100)</text></g></g><g transform="translate(-46,-42) scale(1,1)"><g><path fill="none" stroke="none"></path><text fill="#000000" stroke="none" font-family="Arial" font-size="13px" font-style="normal" font-weight="normal" text-decoration="none" x="61" y="183"></text></g></g><g transform="translate(-46,-42) scale(1,1)"><g><path fill="none" stroke="none"></path><text fill="#000000" stroke="none" font-family="Arial" font-size="13px" font-style="normal" font-weight="normal" text-decoration="none" x="71" y="183">livello</text></g></g><g transform="translate(-46,-42) scale(1,1)"><g><path fill="none" stroke="none"></path><text fill="#000000" stroke="none" font-family="Arial" font-size="13px" font-style="normal" font-weight="normal" text-decoration="none" x="142" y="183">byte</text></g></g><g transform="translate(-46,-42) scale(1,1)"><rect fill="#C0C0C0" stroke="none" x="535" y="95" width="128" height="75" opacity="0.2"></rect></g><g transform="translate(-46,-42) scale(1,1)"><rect fill="#ffffff" stroke="none" x="528" y="88" width="128" height="75"></rect></g><g transform="translate(-46,-42) scale(1,1)"><path fill="none" stroke="#000000" d="M 528 88 L 656 88 L 656 163 L 528 163 L 528 88 Z Z" stroke-miterlimit="10"></path></g><g transform="translate(-46,-42) scale(1,1)"><path fill="none" stroke="#000000" d="M 528 111 L 656 111" stroke-miterlimit="10"></path></g><g transform="translate(-46,-42) scale(1,1)"><path fill="none" stroke="#000000" d="M 538 111 L 538 163" stroke-miterlimit="10"></path></g><g transform="translate(-46,-42) scale(1,1)"><path fill="none" stroke="#000000" d="M 596 111 L 596 163" stroke-miterlimit="10"></path></g><g transform="translate(-46,-42) scale(1,1)"><g><path fill="none" stroke="none"></path><text fill="#000000" stroke="none" font-family="Arial" font-size="13px" font-style="normal" font-weight="bold" text-decoration="none" x="575.5" y="105.5">Copia</text></g></g><g transform="translate(-46,-42) scale(1,1)"><g><path fill="none" stroke="none"></path><text fill="#000000" stroke="none" font-family="Arial" font-size="13px" font-style="normal" font-weight="normal" text-decoration="none" x="533" y="129"></text></g></g><g transform="translate(-46,-42) scale(1,1)"><g><path fill="none" stroke="none"></path><text fill="#000000" stroke="none" font-family="Arial" font-size="13px" font-style="normal" font-weight="normal" text-decoration="none" x="543" y="129">Volume</text></g></g><g transform="translate(-46,-42) scale(1,1)"><g><path fill="none" stroke="none"></path><text fill="#000000" stroke="none" font-family="Arial" font-size="13px" font-style="normal" font-weight="normal" text-decoration="none" x="601" y="129">integer</text></g></g><g transform="translate(-46,-42) scale(1,1)"><g><path fill="none" stroke="none"></path><text fill="#000000" stroke="none" font-family="Arial" font-size="13px" font-style="normal" font-weight="normal" text-decoration="none" x="533" y="144"></text></g></g><g transform="translate(-46,-42) scale(1,1)"><g><path fill="none" stroke="none"></path><text fill="#000000" stroke="none" font-family="Arial" font-size="13px" font-style="normal" font-weight="normal" text-decoration="none" x="543" y="144">Prezzo</text></g></g><g transform="translate(-46,-42) scale(1,1)"><g><path fill="none" stroke="none"></path><text fill="#000000" stroke="none" font-family="Arial" font-size="13px" font-style="normal" font-weight="normal" text-decoration="none" x="601" y="144">double</text></g></g><g transform="translate(-46,-42) scale(1,1)"><rect fill="#C0C0C0" stroke="none" x="559" y="275" width="60" height="32" opacity="0.2"></rect></g><g transform="translate(-46,-42) scale(1,1)"><rect fill="#ffffff" stroke="none" x="552" y="268" width="60" height="32"></rect></g><g transform="translate(-46,-42) scale(1,1)"><path fill="none" stroke="#000000" d="M 552 268 L 612 268 L 612 300 L 552 300 L 552 268 Z Z" stroke-miterlimit="10"></path></g><g transform="translate(-46,-42) scale(1,1)"><g><path fill="none" stroke="none"></path><text fill="#000000" stroke="none" font-family="Arial" font-size="13px" font-style="normal" font-weight="bold" text-decoration="none" x="558" y="285.5">Fumetto</text></g></g><g transform="translate(-46,-42) scale(1,1)"><rect fill="#C0C0C0" stroke="none" x="559" y="463" width="52" height="32" opacity="0.2"></rect></g><g transform="translate(-46,-42) scale(1,1)"><rect fill="#ffffff" stroke="none" x="552" y="456" width="52" height="32"></rect></g><g transform="translate(-46,-42) scale(1,1)"><path fill="none" stroke="#000000" d="M 552 456 L 604 456 L 604 488 L 552 488 L 552 456 Z Z" stroke-miterlimit="10"></path></g><g transform="translate(-46,-42) scale(1,1)"><g><path fill="none" stroke="none"></path><text fill="#000000" stroke="none" font-family="Arial" font-size="13px" font-style="normal" font-weight="bold" text-decoration="none" x="559" y="473.5">Autore</text></g></g><g transform="translate(-46,-42) scale(1,1)"><rect fill="#C0C0C0" stroke="none" x="283" y="487" width="57" height="32" opacity="0.2"></rect></g><g transform="translate(-46,-42) scale(1,1)"><rect fill="#ffffff" stroke="none" x="276" y="480" width="57" height="32"></rect></g><g transform="translate(-46,-42) scale(1,1)"><path fill="none" stroke="#000000" d="M 276 480 L 333 480 L 333 512 L 276 512 L 276 480 Z Z" stroke-miterlimit="10"></path></g><g transform="translate(-46,-42) scale(1,1)"><g><path fill="none" stroke="none"></path><text fill="#000000" stroke="none" font-family="Arial" font-size="13px" font-style="normal" font-weight="bold" text-decoration="none" x="282" y="497.5">Prestito</text></g></g><g transform="translate(-46,-42) scale(1,1)"><path fill="none" stroke="#000000" d="M 240 104 L 528 104" stroke-miterlimit="10"></path></g><g transform="translate(-46,-42) scale(1,1)"><path fill="none" stroke="#000000" d="M 521 111 L 521 97" stroke-miterlimit="10"></path></g><g transform="translate(-46,-42) scale(1,1)"><path fill="none" stroke="#000000" d="M 254 104 L 240 97" stroke-miterlimit="10"></path></g><g transform="translate(-46,-42) scale(1,1)"><path fill="none" stroke="#000000" d="M 254 104 L 240 111" stroke-miterlimit="10"></path></g><g transform="translate(-46,-42) scale(1,1)"><path fill="#FFFFFF" stroke="none" d="M 255 104 C 255 100.1340064 258.1340064 97 262 97 C 265.8659936 97 269 100.1340064 269 104 C 269 107.8659936 265.8659936 111 262 111 C 258.1340064 111 255 107.8659936 255 104 Z"></path></g><g transform="translate(-46,-42) scale(1,1)"><path fill="none" stroke="#000000" d="M 255 104 C 255 100.1340064 258.1340064 97 262 97 C 265.8659936 97 269 100.1340064 269 104 C 269 107.8659936 265.8659936 111 262 111 C 258.1340064 111 255 107.8659936 255 104 Z" stroke-miterlimit="10"></path></g><g transform="translate(-46,-42) scale(1,1)"><g><path fill="none" stroke="none"></path><text fill="#000000" stroke="none" font-family="Arial" font-size="13px" font-style="normal" font-weight="normal" text-decoration="none" x="355" y="96">collezione</text></g></g><g transform="translate(-46,-42) scale(1,1)"><g><path fill="none" stroke="none"></path><text fill="#000000" stroke="none" font-family="Arial" font-size="13px" font-style="normal" font-weight="normal" text-decoration="none" x="265" y="96"></text></g></g><g transform="translate(-46,-42) scale(1,1)"><g><path fill="none" stroke="none"></path><text fill="#000000" stroke="none" font-family="Arial" font-size="13px" font-style="normal" font-weight="normal" text-decoration="none" x="502" y="96"></text></g></g><g transform="translate(-46,-42) scale(1,1)"><path fill="none" stroke="#000000" d="M 588 268 L 588 163" stroke-miterlimit="10"></path></g><g transform="translate(-46,-42) scale(1,1)"><path fill="none" stroke="#000000" d="M 595 170 L 581 170" stroke-miterlimit="10"></path></g><g transform="translate(-46,-42) scale(1,1)"><path fill="none" stroke="#000000" d="M 588 254 L 581 268" stroke-miterlimit="10"></path></g><g transform="translate(-46,-42) scale(1,1)"><path fill="none" stroke="#000000" d="M 588 254 L 595 268" stroke-miterlimit="10"></path></g><g transform="translate(-46,-42) scale(1,1)"><path fill="#FFFFFF" stroke="none" d="M 581 246 C 581 242.1340064 584.1340064 239 588 239 C 591.8659936 239 595 242.1340064 595 246 C 595 249.8659936 591.8659936 253 588 253 C 584.1340064 253 581 249.8659936 581 246 Z"></path></g><g transform="translate(-46,-42) scale(1,1)"><path fill="none" stroke="#000000" d="M 581 246 C 581 242.1340064 584.1340064 239 588 239 C 591.8659936 239 595 242.1340064 595 246 C 595 249.8659936 591.8659936 253 588 253 C 584.1340064 253 581 249.8659936 581 246 Z" stroke-miterlimit="10"></path></g><g transform="translate(-46,-42) scale(1,1)"><g><path fill="none" stroke="none"></path><text fill="#000000" stroke="none" font-family="Arial" font-size="13px" font-style="normal" font-weight="normal" text-decoration="none" x="538" y="221">è la copia di</text></g></g><g transform="translate(-46,-42) scale(1,1)"><g><path fill="none" stroke="none"></path><text fill="#000000" stroke="none" font-family="Arial" font-size="13px" font-style="normal" font-weight="normal" text-decoration="none" x="573" y="249"></text></g></g><g transform="translate(-46,-42) scale(1,1)"><g><path fill="none" stroke="none"></path><text fill="#000000" stroke="none" font-family="Arial" font-size="13px" font-style="normal" font-weight="normal" text-decoration="none" x="573" y="195"></text></g></g><g transform="translate(-46,-42) scale(1,1)"><path fill="none" stroke="#000000" d="M 584 456 L 584 300" stroke-miterlimit="10"></path></g><g transform="translate(-46,-42) scale(1,1)"><path fill="none" stroke="#000000" d="M 584 314 L 591 300" stroke-miterlimit="10"></path></g><g transform="translate(-46,-42) scale(1,1)"><path fill="none" stroke="#000000" d="M 584 314 L 577 300" stroke-miterlimit="10"></path></g><g transform="translate(-46,-42) scale(1,1)"><path fill="#FFFFFF" stroke="none" d="M 577 322 C 577 318.1340064 580.1340064 315 584 315 C 587.8659936 315 591 318.1340064 591 322 C 591 325.8659936 587.8659936 329 584 329 C 580.1340064 329 577 325.8659936 577 322 Z"></path></g><g transform="translate(-46,-42) scale(1,1)"><path fill="none" stroke="#000000" d="M 577 322 C 577 318.1340064 580.1340064 315 584 315 C 587.8659936 315 591 318.1340064 591 322 C 591 325.8659936 587.8659936 329 584 329 C 580.1340064 329 577 325.8659936 577 322 Z" stroke-miterlimit="10"></path></g><g transform="translate(-46,-42) scale(1,1)"><path fill="none" stroke="#000000" d="M 584 442 L 577 456" stroke-miterlimit="10"></path></g><g transform="translate(-46,-42) scale(1,1)"><path fill="none" stroke="#000000" d="M 584 442 L 591 456" stroke-miterlimit="10"></path></g><g transform="translate(-46,-42) scale(1,1)"><path fill="#FFFFFF" stroke="none" d="M 577 434 C 577 430.1340064 580.1340064 427 584 427 C 587.8659936 427 591 430.1340064 591 434 C 591 437.8659936 587.8659936 441 584 441 C 580.1340064 441 577 437.8659936 577 434 Z"></path></g><g transform="translate(-46,-42) scale(1,1)"><path fill="none" stroke="#000000" d="M 577 434 C 577 430.1340064 580.1340064 427 584 427 C 587.8659936 427 591 430.1340064 591 434 C 591 437.8659936 587.8659936 441 584 441 C 580.1340064 441 577 437.8659936 577 434 Z" stroke-miterlimit="10"></path></g><g transform="translate(-46,-42) scale(1,1)"><g><path fill="none" stroke="none"></path><text fill="#000000" stroke="none" font-family="Arial" font-size="13px" font-style="normal" font-weight="normal" text-decoration="none" x="594" y="382">ha come autore</text></g></g><g transform="translate(-46,-42) scale(1,1)"><g><path fill="none" stroke="none"></path><text fill="#000000" stroke="none" font-family="Arial" font-size="13px" font-style="normal" font-weight="normal" text-decoration="none" x="569" y="437"></text></g></g><g transform="translate(-46,-42) scale(1,1)"><g><path fill="none" stroke="none"></path><text fill="#000000" stroke="none" font-family="Arial" font-size="13px" font-style="normal" font-weight="normal" text-decoration="none" x="569" y="332"></text></g></g><g transform="translate(-46,-42) scale(1,1)"><rect fill="#C0C0C0" stroke="none" x="155" y="503" width="69" height="32" opacity="0.2"></rect></g><g transform="translate(-46,-42) scale(1,1)"><rect fill="#ffffff" stroke="none" x="148" y="496" width="69" height="32"></rect></g><g transform="translate(-46,-42) scale(1,1)"><path fill="none" stroke="#000000" d="M 148 496 L 217 496 L 217 528 L 148 528 L 148 496 Z Z" stroke-miterlimit="10"></path></g><g transform="translate(-46,-42) scale(1,1)"><g><path fill="none" stroke="none"></path><text fill="#000000" stroke="none" font-family="Arial" font-size="13px" font-style="normal" font-weight="bold" text-decoration="none" x="155" y="513.5">Comunità</text></g></g></g></svg>